# xmcd
#
# Track frame offsets: 
#        182
#        19425
#        34677
#        51130
#        60510
#        79887
#        101177
#        117312
#        134327
#        149405
#        175127
#        185620
#        196065
#        202927
#        210017
#        217442
#        226660
#        234257
#        244115
#        248477
#
# Disc length: 3568 seconds
#
# Revision: 0
# Processed by: cddbd v1.4PL0 Copyright (c) Steve Scherf et al.
# Submitted via: ExactAudioCopy v0.90b3
#
DISCID=170dee14
DTITLE=Soundtrack - Gordy
DYEAR=1900
DGENRE=Country
TTITLE0=I Made A Promise (Crystal Gayle and Eddie Rabbitt)
TTITLE1=More Love (Doug Stone)
TTITLE2=I Could Always Count On You (Doug Stone)
TTITLE3=Your Heart's On You (Kristy Young)
TTITLE4=Dream High (Doug Stone)
TTITLE5=Y'All Come (Roy Clark, Moe Bandy, Mickey Gilley, Boxcar Willie
TTITLE5=, Jim Stafford, Buck Trent and Christy Lane)
TTITLE6=Guardian Angel (The Judds)
TTITLE7=Pig Power (Tag Team)
TTITLE8=Gordy Main Title Theme (Orchestral Score By Charles Fox)
TTITLE9=Remember That You Promised (Orchestral Score By Charles Fox)
TTITLE10=Gordy Is News (Orchestral Score By Charles Fox)
TTITLE11=On The Road (Orchestral Score By Charles Fox)
TTITLE12=Hanky And Gordy On The Run (Orchestral Score By Charles Fox)
TTITLE13=Gordy Saves Hanky (Orchestral Score By Charles Fox)
TTITLE14=Dreaming Of Home (Orchestral Score By Charles Fox)
TTITLE15=Pigs On Auction Block (Orchestral Score By Charles Fox)
TTITLE16=Hanky And Gordy Make Their Plans (Orchestral Score By Charles
TTITLE16=Fox)
TTITLE17=Sausage Factory (Orchestral Score By Charles Fox)
TTITLE18=That Was A Sweet Kiss (Home Again) (Orchestral Score By Charl
TTITLE18=es Fox)
TTITLE19=I Made A Promise (Instrumental)
EXTD=
EXTT0=
EXTT1=
EXTT2=
EXTT3=
EXTT4=
EXTT5=
EXTT6=
EXTT7=
EXTT8=
EXTT9=
EXTT10=
EXTT11=
EXTT12=
EXTT13=
EXTT14=
EXTT15=
EXTT16=
EXTT17=
EXTT18=
EXTT19=
PLAYORDER=
